<svg width="19" height="15" viewBox="0 0 19 15" fill="none" xmlns="http://www.w3.org/2000/svg">
<path d="M0 1.66144V1.17801C0 0.865584 0.124348 0.565952 0.34569 0.345032C0.567031 0.124112 0.867235 0 1.18026 0L17.7039 0C18.0169 0 18.3171 0.124112 18.5385 0.345032C18.7598 0.565952 18.8841 0.865584 18.8841 1.17801V1.66144L9.44207 7.5515L0 1.66144ZM9.75484 8.74571C9.66103 8.80415 9.55266 8.83513 9.44207 8.83513C9.33149 8.83513 9.22312 8.80415 9.1293 8.74571L0 3.05061V12.9581C0 13.2706 0.124348 13.5702 0.34569 13.7911C0.567031 14.012 0.867235 14.1361 1.18026 14.1361H17.7039C18.0169 14.1361 18.3171 14.012 18.5385 13.7911C18.7598 13.5702 18.8841 13.2706 18.8841 12.9581V3.05061L9.75484 8.74571Z" fill="#787878"/>
</svg>
