<svg width="19" height="19" viewBox="0 0 19 19" fill="none" xmlns="http://www.w3.org/2000/svg">
<path d="M14.3965 13.3794C14.292 13.3808 14.1887 13.4011 14.0914 13.4391C14.0444 13.459 13.9994 13.483 13.9566 13.5109C13.9128 13.5403 13.8717 13.5737 13.8338 13.6105C13.6862 13.7614 13.6036 13.9646 13.604 14.1763C13.6033 14.2286 13.6086 14.2807 13.6198 14.3317C13.6283 14.3825 13.6429 14.432 13.6634 14.4792C13.6831 14.5277 13.7069 14.5743 13.7347 14.6186C13.7645 14.6611 13.7976 14.7011 13.8338 14.7382C13.8718 14.7749 13.9129 14.8083 13.9566 14.8378C13.9993 14.8658 14.0444 14.8899 14.0914 14.9099C14.1402 14.9299 14.1905 14.9459 14.2419 14.9577C14.3696 14.9827 14.5014 14.9757 14.6258 14.9375C14.7502 14.8992 14.8633 14.8307 14.9552 14.7382C14.9924 14.702 15.0256 14.6619 15.0543 14.6186C15.0832 14.5743 15.1084 14.5277 15.1295 14.4792C15.1481 14.4313 15.1627 14.382 15.1731 14.3317C15.1822 14.2804 15.1875 14.2284 15.189 14.1763C15.1893 14.0711 15.1688 13.9669 15.1287 13.8697C15.0886 13.7726 15.0296 13.6845 14.9552 13.6105C14.9192 13.5729 14.8792 13.5395 14.8359 13.5109C14.792 13.4829 14.7457 13.4589 14.6976 13.4391C14.6507 13.4185 14.6015 13.4038 14.551 13.3953C14.5003 13.384 14.4484 13.3787 14.3965 13.3794ZM9.39582 5.09738C8.53882 5.09738 7.70107 5.35294 6.9885 5.83175C6.27594 6.31056 5.72057 6.99111 5.39263 7.78734C5.06469 8.58357 4.9789 9.45971 5.14612 10.305C5.31334 11.1502 5.72606 11.9266 6.33208 12.536C6.9381 13.1454 7.7102 13.5603 8.55074 13.7284C9.39128 13.8965 10.2625 13.8102 11.0543 13.4803C11.846 13.1504 12.5227 12.5919 12.9988 11.8753C13.4748 11.1587 13.7289 10.3162 13.7288 9.45434C13.7275 8.29908 13.2706 7.19151 12.4583 6.37462C11.646 5.55773 10.5446 5.09824 9.39582 5.09698V5.09738ZM9.39582 12.6167C8.77385 12.6167 8.16583 12.4313 7.64865 12.0839C7.13146 11.7365 6.72835 11.2426 6.49028 10.6648C6.25221 10.087 6.18988 9.4511 6.31117 8.83765C6.43246 8.22419 6.73192 7.66068 7.17169 7.21838C7.61146 6.77608 8.17178 6.47486 8.78179 6.35281C9.3918 6.23076 10.0241 6.29336 10.5987 6.53269C11.1734 6.77203 11.6645 7.17735 12.0101 7.6974C12.3556 8.21745 12.5401 8.82887 12.5401 9.45434C12.5392 10.2927 12.2077 11.0965 11.6182 11.6894C11.0288 12.2822 10.2295 12.6157 9.39582 12.6167Z" fill="#787878"/>
<path d="M7.59603 8.9198C7.42801 8.9198 7.26688 8.98278 7.14807 9.09489C7.02927 9.207 6.96252 9.35905 6.96252 9.51759C6.96314 10.0076 7.12476 10.4853 7.42512 10.885C7.72548 11.2847 8.1498 11.5867 8.63963 11.7493C8.71852 11.777 8.80247 11.7896 8.88658 11.7864C8.97068 11.7831 9.05325 11.7641 9.12947 11.7303C9.20569 11.6966 9.27402 11.6489 9.33047 11.59C9.38693 11.5311 9.43037 11.4621 9.45827 11.3872C9.48616 11.3122 9.49795 11.2328 9.49294 11.1535C9.48793 11.0742 9.46623 10.9967 9.42909 10.9254C9.39196 10.8541 9.34015 10.7905 9.27668 10.7383C9.2132 10.6862 9.13935 10.6464 9.05943 10.6215C8.81714 10.541 8.60725 10.3916 8.45863 10.194C8.31001 9.99627 8.22998 9.75997 8.22954 9.51759C8.22954 9.35905 8.16279 9.207 8.04399 9.09489C7.92518 8.98278 7.76405 8.9198 7.59603 8.9198Z" fill="#787878"/>
<path d="M12.1157 -1.52588e-05H6.55439C4.8167 0.00209999 3.15079 0.697958 1.92206 1.93492C0.693328 3.17189 0.00210247 4.84896 0 6.59829V12.1969C0.00210247 13.9462 0.693328 15.6233 1.92206 16.8602C3.15079 18.0972 4.8167 18.793 6.55439 18.7952H12.1157C13.8534 18.793 15.5193 18.0972 16.748 16.8602C17.9768 15.6233 18.668 13.9462 18.6701 12.1969V6.59829C18.668 4.84896 17.9768 3.17189 16.748 1.93492C15.5193 0.697958 13.8534 0.00209999 12.1157 -1.52588e-05ZM6.55439 17.5955C5.1326 17.5939 3.7695 17.0246 2.76414 16.0125C1.75879 15.0004 1.19328 13.6282 1.19171 12.1969V6.59829C1.19328 5.16698 1.75879 3.79474 2.76414 2.78265C3.7695 1.77056 5.1326 1.20126 6.55439 1.19968H12.1157C13.5375 1.20126 14.9006 1.77056 15.9059 2.78265C16.9113 3.79474 17.4768 5.16698 17.4784 6.59829V12.1969C17.4768 13.6282 16.9113 15.0004 15.9059 16.0125C14.9006 17.0246 13.5375 17.5939 12.1157 17.5955H6.55439Z" fill="#787878"/>
</svg>
