<svg width="404" height="237" viewBox="0 0 404 237" fill="none" xmlns="http://www.w3.org/2000/svg">
<path d="M183.499 68.5368C183.499 70.2959 182.173 71.5736 180.714 71.5736C179.256 71.5736 177.93 70.2959 177.93 68.5368C177.93 66.7777 179.256 65.5 180.714 65.5C182.173 65.5 183.499 66.7777 183.499 68.5368Z" fill="#0264BE" stroke="#F6F6F6" stroke-width="3"/>
<circle cx="180.714" cy="83.4074" r="2.78474" fill="#0264BE" stroke="#F6F6F6" stroke-width="3"/>
<path d="M183.499 98.2779C183.499 100.037 182.173 101.315 180.714 101.315C179.256 101.315 177.93 100.037 177.93 98.2779C177.93 96.5188 179.256 95.2411 180.714 95.2411C182.173 95.2411 183.499 96.5188 183.499 98.2779Z" fill="#0264BE" stroke="#F6F6F6" stroke-width="3"/>
<circle cx="180.714" cy="113.149" r="2.78474" fill="#0264BE" stroke="#F6F6F6" stroke-width="3"/>
<path d="M183.499 128.019C183.499 129.778 182.173 131.056 180.714 131.056C179.256 131.056 177.93 129.778 177.93 128.019C177.93 126.26 179.256 124.982 180.714 124.982C182.173 124.982 183.499 126.26 183.499 128.019Z" fill="#0264BE" stroke="#F6F6F6" stroke-width="3"/>
<path d="M183.499 143.142C183.499 144.901 182.173 146.178 180.714 146.178C179.256 146.178 177.93 144.901 177.93 143.142C177.93 141.383 179.256 140.105 180.714 140.105C182.173 140.105 183.499 141.383 183.499 143.142Z" fill="#0264BE" stroke="#F6F6F6" stroke-width="3"/>
<path d="M183.499 157.76C183.499 159.519 182.173 160.797 180.714 160.797C179.256 160.797 177.93 159.519 177.93 157.76C177.93 156.001 179.256 154.723 180.714 154.723C182.173 154.723 183.499 156.001 183.499 157.76Z" fill="#0264BE" stroke="#F6F6F6" stroke-width="3"/>
<path d="M183.499 172.883C183.499 174.642 182.173 175.92 180.714 175.92C179.256 175.92 177.93 174.642 177.93 172.883C177.93 171.124 179.256 169.846 180.714 169.846C182.173 169.846 183.499 171.124 183.499 172.883Z" fill="#0264BE" stroke="#F6F6F6" stroke-width="3"/>
<circle cx="180.714" cy="187.753" r="2.78474" fill="#0264BE" stroke="#F6F6F6" stroke-width="3"/>
<path d="M183.499 202.624C183.499 204.383 182.173 205.661 180.714 205.661C179.256 205.661 177.93 204.383 177.93 202.624C177.93 200.865 179.256 199.587 180.714 199.587C182.173 199.587 183.499 200.865 183.499 202.624Z" fill="#0264BE" stroke="#F6F6F6" stroke-width="3"/>
<circle cx="180.714" cy="217.495" r="2.78474" fill="#0264BE" stroke="#F6F6F6" stroke-width="3"/>
<path d="M183.499 232.365C183.499 234.124 182.173 235.402 180.714 235.402C179.256 235.402 177.93 234.124 177.93 232.365C177.93 230.606 179.256 229.328 180.714 229.328C182.173 229.328 183.499 230.606 183.499 232.365Z" fill="#0264BE" stroke="#F6F6F6" stroke-width="3"/>
<circle cx="164.836" cy="68.5368" r="3.03678" fill="#0264BE" stroke="#F6F6F6" stroke-width="3"/>
<path d="M167.872 83.4074C167.872 84.8657 166.595 86.1921 164.836 86.1921C163.077 86.1921 161.799 84.8657 161.799 83.4074C161.799 81.949 163.077 80.6226 164.836 80.6226C166.595 80.6226 167.872 81.949 167.872 83.4074Z" fill="#0264BE" stroke="#F6F6F6" stroke-width="3"/>
<circle cx="164.836" cy="98.2779" r="3.03678" fill="#0264BE" stroke="#F6F6F6" stroke-width="3"/>
<path d="M167.872 113.149C167.872 114.607 166.595 115.933 164.836 115.933C163.077 115.933 161.799 114.607 161.799 113.149C161.799 111.69 163.077 110.364 164.836 110.364C166.595 110.364 167.872 111.69 167.872 113.149Z" fill="#0264BE" stroke="#F6F6F6" stroke-width="3"/>
<circle cx="164.836" cy="128.019" r="3.03678" fill="#0264BE" stroke="#F6F6F6" stroke-width="3"/>
<circle cx="164.836" cy="143.142" r="3.03678" fill="#0264BE" stroke="#F6F6F6" stroke-width="3"/>
<circle cx="164.836" cy="157.76" r="3.03678" fill="#0264BE" stroke="#F6F6F6" stroke-width="3"/>
<circle cx="164.836" cy="172.883" r="3.03678" fill="#0264BE" stroke="#F6F6F6" stroke-width="3"/>
<path d="M167.872 187.753C167.872 189.212 166.595 190.538 164.836 190.538C163.077 190.538 161.799 189.212 161.799 187.753C161.799 186.295 163.077 184.969 164.836 184.969C166.595 184.969 167.872 186.295 167.872 187.753Z" fill="#0264BE" stroke="#F6F6F6" stroke-width="3"/>
<circle cx="164.836" cy="202.624" r="3.03678" fill="#0264BE" stroke="#F6F6F6" stroke-width="3"/>
<path d="M167.872 217.495C167.872 218.953 166.595 220.279 164.836 220.279C163.077 220.279 161.799 218.953 161.799 217.495C161.799 216.036 163.077 214.71 164.836 214.71C166.595 214.71 167.872 216.036 167.872 217.495Z" fill="#0264BE" stroke="#F6F6F6" stroke-width="3"/>
<circle cx="164.836" cy="232.365" r="3.03678" fill="#0264BE" stroke="#F6F6F6" stroke-width="3"/>
<circle cx="148.705" cy="68.5368" r="3.03678" fill="#0264BE" stroke="#F6F6F6" stroke-width="3"/>
<path d="M151.742 83.4074C151.742 84.8657 150.464 86.1921 148.705 86.1921C146.946 86.1921 145.668 84.8657 145.668 83.4074C145.668 81.949 146.946 80.6226 148.705 80.6226C150.464 80.6226 151.742 81.949 151.742 83.4074Z" fill="#0264BE" stroke="#F6F6F6" stroke-width="3"/>
<circle cx="148.705" cy="98.2779" r="3.03678" fill="#0264BE" stroke="#F6F6F6" stroke-width="3"/>
<path d="M151.742 113.149C151.742 114.607 150.464 115.933 148.705 115.933C146.946 115.933 145.668 114.607 145.668 113.149C145.668 111.69 146.946 110.364 148.705 110.364C150.464 110.364 151.742 111.69 151.742 113.149Z" fill="#0264BE" stroke="#F6F6F6" stroke-width="3"/>
<circle cx="148.705" cy="128.019" r="3.03678" fill="#0264BE" stroke="#F6F6F6" stroke-width="3"/>
<circle cx="148.705" cy="143.142" r="3.03678" fill="#0264BE" stroke="#F6F6F6" stroke-width="3"/>
<circle cx="148.705" cy="157.76" r="3.03678" fill="#0264BE" stroke="#F6F6F6" stroke-width="3"/>
<circle cx="148.705" cy="172.883" r="3.03678" fill="#0264BE" stroke="#F6F6F6" stroke-width="3"/>
<path d="M151.742 187.753C151.742 189.212 150.464 190.538 148.705 190.538C146.946 190.538 145.668 189.212 145.668 187.753C145.668 186.295 146.946 184.969 148.705 184.969C150.464 184.969 151.742 186.295 151.742 187.753Z" fill="#0264BE" stroke="#F6F6F6" stroke-width="3"/>
<circle cx="148.705" cy="202.624" r="3.03678" fill="#0264BE" stroke="#F6F6F6" stroke-width="3"/>
<path d="M151.742 217.495C151.742 218.953 150.464 220.279 148.705 220.279C146.946 220.279 145.668 218.953 145.668 217.495C145.668 216.036 146.946 214.71 148.705 214.71C150.464 214.71 151.742 216.036 151.742 217.495Z" fill="#0264BE" stroke="#F6F6F6" stroke-width="3"/>
<circle cx="148.705" cy="232.365" r="3.03678" fill="#0264BE" stroke="#F6F6F6" stroke-width="3"/>
<circle cx="132.576" cy="68.5368" r="3.03678" fill="#0264BE" stroke="#F6F6F6" stroke-width="3"/>
<path d="M135.613 83.4074C135.613 84.8657 134.335 86.1921 132.576 86.1921C130.817 86.1921 129.539 84.8657 129.539 83.4074C129.539 81.949 130.817 80.6226 132.576 80.6226C134.335 80.6226 135.613 81.949 135.613 83.4074Z" fill="#0264BE" stroke="#F6F6F6" stroke-width="3"/>
<circle cx="132.576" cy="98.2779" r="3.03678" fill="#0264BE" stroke="#F6F6F6" stroke-width="3"/>
<path d="M135.613 113.149C135.613 114.607 134.335 115.933 132.576 115.933C130.817 115.933 129.539 114.607 129.539 113.149C129.539 111.69 130.817 110.364 132.576 110.364C134.335 110.364 135.613 111.69 135.613 113.149Z" fill="#0264BE" stroke="#F6F6F6" stroke-width="3"/>
<circle cx="132.576" cy="128.019" r="3.03678" fill="#0264BE" stroke="#F6F6F6" stroke-width="3"/>
<circle cx="132.576" cy="143.142" r="3.03678" fill="#0264BE" stroke="#F6F6F6" stroke-width="3"/>
<circle cx="132.576" cy="157.76" r="3.03678" fill="#0264BE" stroke="#F6F6F6" stroke-width="3"/>
<circle cx="132.576" cy="172.883" r="3.03678" fill="#0264BE" stroke="#F6F6F6" stroke-width="3"/>
<path d="M135.613 187.753C135.613 189.212 134.335 190.538 132.576 190.538C130.817 190.538 129.539 189.212 129.539 187.753C129.539 186.295 130.817 184.969 132.576 184.969C134.335 184.969 135.613 186.295 135.613 187.753Z" fill="#0264BE" stroke="#F6F6F6" stroke-width="3"/>
<circle cx="132.576" cy="202.624" r="3.03678" fill="#0264BE" stroke="#F6F6F6" stroke-width="3"/>
<path d="M135.613 217.495C135.613 218.953 134.335 220.279 132.576 220.279C130.817 220.279 129.539 218.953 129.539 217.495C129.539 216.036 130.817 214.71 132.576 214.71C134.335 214.71 135.613 216.036 135.613 217.495Z" fill="#0264BE" stroke="#F6F6F6" stroke-width="3"/>
<circle cx="132.576" cy="232.365" r="3.03678" fill="#0264BE" stroke="#F6F6F6" stroke-width="3"/>
<path d="M119.482 68.5368C119.482 70.2959 118.155 71.5736 116.697 71.5736C115.239 71.5736 113.912 70.2959 113.912 68.5368C113.912 66.7777 115.239 65.5 116.697 65.5C118.155 65.5 119.482 66.7777 119.482 68.5368Z" fill="#0264BE" stroke="#F6F6F6" stroke-width="3"/>
<circle cx="116.697" cy="83.4074" r="2.78474" fill="#0264BE" stroke="#F6F6F6" stroke-width="3"/>
<path d="M119.482 98.2779C119.482 100.037 118.155 101.315 116.697 101.315C115.239 101.315 113.912 100.037 113.912 98.2779C113.912 96.5188 115.239 95.2411 116.697 95.2411C118.155 95.2411 119.482 96.5188 119.482 98.2779Z" fill="#0264BE" stroke="#F6F6F6" stroke-width="3"/>
<circle cx="116.697" cy="113.149" r="2.78474" fill="#0264BE" stroke="#F6F6F6" stroke-width="3"/>
<path d="M119.482 128.019C119.482 129.778 118.155 131.056 116.697 131.056C115.239 131.056 113.912 129.778 113.912 128.019C113.912 126.26 115.239 124.982 116.697 124.982C118.155 124.982 119.482 126.26 119.482 128.019Z" fill="#0264BE" stroke="#F6F6F6" stroke-width="3"/>
<path d="M119.482 143.142C119.482 144.901 118.155 146.178 116.697 146.178C115.239 146.178 113.912 144.901 113.912 143.142C113.912 141.383 115.239 140.105 116.697 140.105C118.155 140.105 119.482 141.383 119.482 143.142Z" fill="#0264BE" stroke="#F6F6F6" stroke-width="3"/>
<path d="M119.482 157.76C119.482 159.519 118.155 160.797 116.697 160.797C115.239 160.797 113.912 159.519 113.912 157.76C113.912 156.001 115.239 154.723 116.697 154.723C118.155 154.723 119.482 156.001 119.482 157.76Z" fill="#0264BE" stroke="#F6F6F6" stroke-width="3"/>
<path d="M119.482 172.883C119.482 174.642 118.155 175.92 116.697 175.92C115.239 175.92 113.912 174.642 113.912 172.883C113.912 171.124 115.239 169.846 116.697 169.846C118.155 169.846 119.482 171.124 119.482 172.883Z" fill="#0264BE" stroke="#F6F6F6" stroke-width="3"/>
<circle cx="116.697" cy="187.753" r="2.78474" fill="#0264BE" stroke="#F6F6F6" stroke-width="3"/>
<path d="M119.482 202.624C119.482 204.383 118.155 205.661 116.697 205.661C115.239 205.661 113.912 204.383 113.912 202.624C113.912 200.865 115.239 199.587 116.697 199.587C118.155 199.587 119.482 200.865 119.482 202.624Z" fill="#0264BE" stroke="#F6F6F6" stroke-width="3"/>
<circle cx="116.697" cy="217.495" r="2.78474" fill="#0264BE" stroke="#F6F6F6" stroke-width="3"/>
<path d="M119.482 232.365C119.482 234.124 118.155 235.402 116.697 235.402C115.239 235.402 113.912 234.124 113.912 232.365C113.912 230.606 115.239 229.328 116.697 229.328C118.155 229.328 119.482 230.606 119.482 232.365Z" fill="#0264BE" stroke="#F6F6F6" stroke-width="3"/>
<path d="M103.351 68.5368C103.351 70.2959 102.024 71.5736 100.566 71.5736C99.1076 71.5736 97.7812 70.2959 97.7812 68.5368C97.7812 66.7777 99.1076 65.5 100.566 65.5C102.024 65.5 103.351 66.7777 103.351 68.5368Z" fill="#0264BE" stroke="#F6F6F6" stroke-width="3"/>
<circle cx="100.566" cy="83.4074" r="2.78474" fill="#0264BE" stroke="#F6F6F6" stroke-width="3"/>
<path d="M103.351 98.2779C103.351 100.037 102.024 101.315 100.566 101.315C99.1076 101.315 97.7812 100.037 97.7812 98.2779C97.7812 96.5188 99.1076 95.2411 100.566 95.2411C102.024 95.2411 103.351 96.5188 103.351 98.2779Z" fill="#0264BE" stroke="#F6F6F6" stroke-width="3"/>
<circle cx="100.566" cy="113.149" r="2.78474" fill="#0264BE" stroke="#F6F6F6" stroke-width="3"/>
<path d="M103.351 128.019C103.351 129.778 102.024 131.056 100.566 131.056C99.1076 131.056 97.7812 129.778 97.7812 128.019C97.7812 126.26 99.1076 124.982 100.566 124.982C102.024 124.982 103.351 126.26 103.351 128.019Z" fill="#0264BE" stroke="#F6F6F6" stroke-width="3"/>
<path d="M103.351 143.142C103.351 144.901 102.024 146.178 100.566 146.178C99.1076 146.178 97.7812 144.901 97.7812 143.142C97.7812 141.383 99.1076 140.105 100.566 140.105C102.024 140.105 103.351 141.383 103.351 143.142Z" fill="#0264BE" stroke="#F6F6F6" stroke-width="3"/>
<path d="M103.351 157.76C103.351 159.519 102.024 160.797 100.566 160.797C99.1076 160.797 97.7812 159.519 97.7812 157.76C97.7812 156.001 99.1076 154.723 100.566 154.723C102.024 154.723 103.351 156.001 103.351 157.76Z" fill="#0264BE" stroke="#F6F6F6" stroke-width="3"/>
<path d="M103.351 172.883C103.351 174.642 102.024 175.92 100.566 175.92C99.1076 175.92 97.7812 174.642 97.7812 172.883C97.7812 171.124 99.1076 169.846 100.566 169.846C102.024 169.846 103.351 171.124 103.351 172.883Z" fill="#0264BE" stroke="#F6F6F6" stroke-width="3"/>
<circle cx="100.566" cy="187.753" r="2.78474" fill="#0264BE" stroke="#F6F6F6" stroke-width="3"/>
<path d="M103.351 202.624C103.351 204.383 102.024 205.661 100.566 205.661C99.1076 205.661 97.7812 204.383 97.7812 202.624C97.7812 200.865 99.1076 199.587 100.566 199.587C102.024 199.587 103.351 200.865 103.351 202.624Z" fill="#0264BE" stroke="#F6F6F6" stroke-width="3"/>
<circle cx="100.566" cy="217.495" r="2.78474" fill="#0264BE" stroke="#F6F6F6" stroke-width="3"/>
<path d="M103.351 232.365C103.351 234.124 102.024 235.402 100.566 235.402C99.1076 235.402 97.7812 234.124 97.7812 232.365C97.7812 230.606 99.1076 229.328 100.566 229.328C102.024 229.328 103.351 230.606 103.351 232.365Z" fill="#0264BE" stroke="#F6F6F6" stroke-width="3"/>
<circle cx="84.6872" cy="68.5368" r="3.03678" fill="#0264BE" stroke="#F6F6F6" stroke-width="3"/>
<path d="M87.724 83.4074C87.724 84.8657 86.4463 86.1921 84.6872 86.1921C82.9281 86.1921 81.6504 84.8657 81.6504 83.4074C81.6504 81.949 82.9281 80.6226 84.6872 80.6226C86.4463 80.6226 87.724 81.949 87.724 83.4074Z" fill="#0264BE" stroke="#F6F6F6" stroke-width="3"/>
<circle cx="84.6872" cy="98.2779" r="3.03678" fill="#0264BE" stroke="#F6F6F6" stroke-width="3"/>
<path d="M87.724 113.149C87.724 114.607 86.4463 115.933 84.6872 115.933C82.9281 115.933 81.6504 114.607 81.6504 113.149C81.6504 111.69 82.9281 110.364 84.6872 110.364C86.4463 110.364 87.724 111.69 87.724 113.149Z" fill="#0264BE" stroke="#F6F6F6" stroke-width="3"/>
<circle cx="84.6872" cy="128.019" r="3.03678" fill="#0264BE" stroke="#F6F6F6" stroke-width="3"/>
<circle cx="84.6872" cy="143.142" r="3.03678" fill="#0264BE" stroke="#F6F6F6" stroke-width="3"/>
<circle cx="84.6872" cy="157.76" r="3.03678" fill="#0264BE" stroke="#F6F6F6" stroke-width="3"/>
<circle cx="84.6872" cy="172.883" r="3.03678" fill="#0264BE" stroke="#F6F6F6" stroke-width="3"/>
<path d="M87.724 187.753C87.724 189.212 86.4463 190.538 84.6872 190.538C82.9281 190.538 81.6504 189.212 81.6504 187.753C81.6504 186.295 82.9281 184.969 84.6872 184.969C86.4463 184.969 87.724 186.295 87.724 187.753Z" fill="#0264BE" stroke="#F6F6F6" stroke-width="3"/>
<circle cx="84.6872" cy="202.624" r="3.03678" fill="#0264BE" stroke="#F6F6F6" stroke-width="3"/>
<path d="M87.724 217.495C87.724 218.953 86.4463 220.279 84.6872 220.279C82.9281 220.279 81.6504 218.953 81.6504 217.495C81.6504 216.036 82.9281 214.71 84.6872 214.71C86.4463 214.71 87.724 216.036 87.724 217.495Z" fill="#0264BE" stroke="#F6F6F6" stroke-width="3"/>
<circle cx="84.6872" cy="232.365" r="3.03678" fill="#0264BE" stroke="#F6F6F6" stroke-width="3"/>
<circle cx="68.5563" cy="68.5368" r="3.03678" fill="#0264BE" stroke="#F6F6F6" stroke-width="3"/>
<path d="M71.5931 83.4074C71.5931 84.8657 70.3154 86.1921 68.5563 86.1921C66.7972 86.1921 65.5195 84.8657 65.5195 83.4074C65.5195 81.949 66.7972 80.6226 68.5563 80.6226C70.3154 80.6226 71.5931 81.949 71.5931 83.4074Z" fill="#0264BE" stroke="#F6F6F6" stroke-width="3"/>
<circle cx="68.5563" cy="98.2779" r="3.03678" fill="#0264BE" stroke="#F6F6F6" stroke-width="3"/>
<path d="M71.5931 113.149C71.5931 114.607 70.3154 115.933 68.5563 115.933C66.7972 115.933 65.5195 114.607 65.5195 113.149C65.5195 111.69 66.7972 110.364 68.5563 110.364C70.3154 110.364 71.5931 111.69 71.5931 113.149Z" fill="#0264BE" stroke="#F6F6F6" stroke-width="3"/>
<circle cx="68.5563" cy="128.019" r="3.03678" fill="#0264BE" stroke="#F6F6F6" stroke-width="3"/>
<circle cx="68.5563" cy="143.142" r="3.03678" fill="#0264BE" stroke="#F6F6F6" stroke-width="3"/>
<circle cx="68.5563" cy="157.76" r="3.03678" fill="#0264BE" stroke="#F6F6F6" stroke-width="3"/>
<circle cx="68.5563" cy="172.883" r="3.03678" fill="#0264BE" stroke="#F6F6F6" stroke-width="3"/>
<path d="M71.5931 187.753C71.5931 189.212 70.3154 190.538 68.5563 190.538C66.7972 190.538 65.5195 189.212 65.5195 187.753C65.5195 186.295 66.7972 184.969 68.5563 184.969C70.3154 184.969 71.5931 186.295 71.5931 187.753Z" fill="#0264BE" stroke="#F6F6F6" stroke-width="3"/>
<circle cx="68.5563" cy="202.624" r="3.03678" fill="#0264BE" stroke="#F6F6F6" stroke-width="3"/>
<path d="M71.5931 217.495C71.5931 218.953 70.3154 220.279 68.5563 220.279C66.7972 220.279 65.5195 218.953 65.5195 217.495C65.5195 216.036 66.7972 214.71 68.5563 214.71C70.3154 214.71 71.5931 216.036 71.5931 217.495Z" fill="#0264BE" stroke="#F6F6F6" stroke-width="3"/>
<circle cx="68.5563" cy="232.365" r="3.03678" fill="#0264BE" stroke="#F6F6F6" stroke-width="3"/>
<circle cx="52.4255" cy="68.5368" r="3.03678" fill="#0264BE" stroke="#F6F6F6" stroke-width="3"/>
<path d="M55.4622 83.4074C55.4622 84.8657 54.1846 86.1921 52.4255 86.1921C50.6664 86.1921 49.3887 84.8657 49.3887 83.4074C49.3887 81.949 50.6664 80.6226 52.4255 80.6226C54.1846 80.6226 55.4622 81.949 55.4622 83.4074Z" fill="#0264BE" stroke="#F6F6F6" stroke-width="3"/>
<circle cx="52.4255" cy="98.2779" r="3.03678" fill="#0264BE" stroke="#F6F6F6" stroke-width="3"/>
<path d="M55.4622 113.149C55.4622 114.607 54.1846 115.933 52.4255 115.933C50.6664 115.933 49.3887 114.607 49.3887 113.149C49.3887 111.69 50.6664 110.364 52.4255 110.364C54.1846 110.364 55.4622 111.69 55.4622 113.149Z" fill="#0264BE" stroke="#F6F6F6" stroke-width="3"/>
<circle cx="52.4255" cy="128.019" r="3.03678" fill="#0264BE" stroke="#F6F6F6" stroke-width="3"/>
<circle cx="52.4255" cy="143.142" r="3.03678" fill="#0264BE" stroke="#F6F6F6" stroke-width="3"/>
<circle cx="52.4255" cy="157.76" r="3.03678" fill="#0264BE" stroke="#F6F6F6" stroke-width="3"/>
<circle cx="52.4255" cy="172.883" r="3.03678" fill="#0264BE" stroke="#F6F6F6" stroke-width="3"/>
<path d="M55.4622 187.753C55.4622 189.212 54.1846 190.538 52.4255 190.538C50.6664 190.538 49.3887 189.212 49.3887 187.753C49.3887 186.295 50.6664 184.969 52.4255 184.969C54.1846 184.969 55.4622 186.295 55.4622 187.753Z" fill="#0264BE" stroke="#F6F6F6" stroke-width="3"/>
<circle cx="52.4255" cy="202.624" r="3.03678" fill="#0264BE" stroke="#F6F6F6" stroke-width="3"/>
<path d="M55.4622 217.495C55.4622 218.953 54.1846 220.279 52.4255 220.279C50.6664 220.279 49.3887 218.953 49.3887 217.495C49.3887 216.036 50.6664 214.71 52.4255 214.71C54.1846 214.71 55.4622 216.036 55.4622 217.495Z" fill="#0264BE" stroke="#F6F6F6" stroke-width="3"/>
<circle cx="52.4255" cy="232.365" r="3.03678" fill="#0264BE" stroke="#F6F6F6" stroke-width="3"/>
<path d="M39.331 68.5368C39.331 70.2959 38.0046 71.5736 36.5462 71.5736C35.0879 71.5736 33.7615 70.2959 33.7615 68.5368C33.7615 66.7777 35.0879 65.5 36.5462 65.5C38.0046 65.5 39.331 66.7777 39.331 68.5368Z" fill="#0264BE" stroke="#F6F6F6" stroke-width="3"/>
<circle cx="36.5462" cy="83.4074" r="2.78474" fill="#0264BE" stroke="#F6F6F6" stroke-width="3"/>
<path d="M39.331 98.2779C39.331 100.037 38.0046 101.315 36.5462 101.315C35.0879 101.315 33.7615 100.037 33.7615 98.2779C33.7615 96.5188 35.0879 95.2411 36.5462 95.2411C38.0046 95.2411 39.331 96.5188 39.331 98.2779Z" fill="#0264BE" stroke="#F6F6F6" stroke-width="3"/>
<circle cx="36.5462" cy="113.149" r="2.78474" fill="#0264BE" stroke="#F6F6F6" stroke-width="3"/>
<path d="M39.331 128.019C39.331 129.778 38.0046 131.056 36.5462 131.056C35.0879 131.056 33.7615 129.778 33.7615 128.019C33.7615 126.26 35.0879 124.982 36.5462 124.982C38.0046 124.982 39.331 126.26 39.331 128.019Z" fill="#0264BE" stroke="#F6F6F6" stroke-width="3"/>
<path d="M39.331 143.142C39.331 144.901 38.0046 146.178 36.5462 146.178C35.0879 146.178 33.7615 144.901 33.7615 143.142C33.7615 141.383 35.0879 140.105 36.5462 140.105C38.0046 140.105 39.331 141.383 39.331 143.142Z" fill="#0264BE" stroke="#F6F6F6" stroke-width="3"/>
<path d="M39.331 157.76C39.331 159.519 38.0046 160.797 36.5462 160.797C35.0879 160.797 33.7615 159.519 33.7615 157.76C33.7615 156.001 35.0879 154.723 36.5462 154.723C38.0046 154.723 39.331 156.001 39.331 157.76Z" fill="#0264BE" stroke="#F6F6F6" stroke-width="3"/>
<path d="M39.331 172.883C39.331 174.642 38.0046 175.92 36.5462 175.92C35.0879 175.92 33.7615 174.642 33.7615 172.883C33.7615 171.124 35.0879 169.846 36.5462 169.846C38.0046 169.846 39.331 171.124 39.331 172.883Z" fill="#0264BE" stroke="#F6F6F6" stroke-width="3"/>
<circle cx="36.5462" cy="187.753" r="2.78474" fill="#0264BE" stroke="#F6F6F6" stroke-width="3"/>
<path d="M39.331 202.624C39.331 204.383 38.0046 205.661 36.5462 205.661C35.0879 205.661 33.7615 204.383 33.7615 202.624C33.7615 200.865 35.0879 199.587 36.5462 199.587C38.0046 199.587 39.331 200.865 39.331 202.624Z" fill="#0264BE" stroke="#F6F6F6" stroke-width="3"/>
<circle cx="36.5462" cy="217.495" r="2.78474" fill="#0264BE" stroke="#F6F6F6" stroke-width="3"/>
<path d="M39.331 232.365C39.331 234.124 38.0046 235.402 36.5462 235.402C35.0879 235.402 33.7615 234.124 33.7615 232.365C33.7615 230.606 35.0879 229.328 36.5462 229.328C38.0046 229.328 39.331 230.606 39.331 232.365Z" fill="#0264BE" stroke="#F6F6F6" stroke-width="3"/>
<circle cx="20.6676" cy="68.5368" r="3.03678" fill="#0264BE" stroke="#F6F6F6" stroke-width="3"/>
<path d="M23.7044 83.4074C23.7044 84.8657 22.4267 86.1921 20.6676 86.1921C18.9085 86.1921 17.6309 84.8657 17.6309 83.4074C17.6309 81.949 18.9085 80.6226 20.6676 80.6226C22.4267 80.6226 23.7044 81.949 23.7044 83.4074Z" fill="#0264BE" stroke="#F6F6F6" stroke-width="3"/>
<circle cx="20.6676" cy="98.2779" r="3.03678" fill="#0264BE" stroke="#F6F6F6" stroke-width="3"/>
<path d="M23.7044 113.149C23.7044 114.607 22.4267 115.933 20.6676 115.933C18.9085 115.933 17.6309 114.607 17.6309 113.149C17.6309 111.69 18.9085 110.364 20.6676 110.364C22.4267 110.364 23.7044 111.69 23.7044 113.149Z" fill="#0264BE" stroke="#F6F6F6" stroke-width="3"/>
<circle cx="20.6676" cy="128.019" r="3.03678" fill="#0264BE" stroke="#F6F6F6" stroke-width="3"/>
<circle cx="20.6676" cy="143.142" r="3.03678" fill="#0264BE" stroke="#F6F6F6" stroke-width="3"/>
<circle cx="20.6676" cy="157.76" r="3.03678" fill="#0264BE" stroke="#F6F6F6" stroke-width="3"/>
<circle cx="20.6676" cy="172.883" r="3.03678" fill="#0264BE" stroke="#F6F6F6" stroke-width="3"/>
<path d="M23.7044 187.753C23.7044 189.212 22.4267 190.538 20.6676 190.538C18.9085 190.538 17.6309 189.212 17.6309 187.753C17.6309 186.295 18.9085 184.969 20.6676 184.969C22.4267 184.969 23.7044 186.295 23.7044 187.753Z" fill="#0264BE" stroke="#F6F6F6" stroke-width="3"/>
<circle cx="20.6676" cy="202.624" r="3.03678" fill="#0264BE" stroke="#F6F6F6" stroke-width="3"/>
<path d="M23.7044 217.495C23.7044 218.953 22.4267 220.279 20.6676 220.279C18.9085 220.279 17.6309 218.953 17.6309 217.495C17.6309 216.036 18.9085 214.71 20.6676 214.71C22.4267 214.71 23.7044 216.036 23.7044 217.495Z" fill="#0264BE" stroke="#F6F6F6" stroke-width="3"/>
<circle cx="20.6676" cy="232.365" r="3.03678" fill="#0264BE" stroke="#F6F6F6" stroke-width="3"/>
<circle cx="4.53678" cy="68.5368" r="3.03678" fill="#0264BE" stroke="#F6F6F6" stroke-width="3"/>
<path d="M7.57357 83.4074C7.57357 84.8657 6.29589 86.1921 4.53678 86.1921C2.77768 86.1921 1.5 84.8657 1.5 83.4074C1.5 81.949 2.77768 80.6226 4.53678 80.6226C6.29589 80.6226 7.57357 81.949 7.57357 83.4074Z" fill="#0264BE" stroke="#F6F6F6" stroke-width="3"/>
<circle cx="4.53678" cy="98.2779" r="3.03678" fill="#0264BE" stroke="#F6F6F6" stroke-width="3"/>
<path d="M7.57357 113.149C7.57357 114.607 6.29589 115.933 4.53678 115.933C2.77768 115.933 1.5 114.607 1.5 113.149C1.5 111.69 2.77768 110.364 4.53678 110.364C6.29589 110.364 7.57357 111.69 7.57357 113.149Z" fill="#0264BE" stroke="#F6F6F6" stroke-width="3"/>
<circle cx="4.53678" cy="128.019" r="3.03678" fill="#0264BE" stroke="#F6F6F6" stroke-width="3"/>
<circle cx="4.53678" cy="143.142" r="3.03678" fill="#0264BE" stroke="#F6F6F6" stroke-width="3"/>
<circle cx="4.53678" cy="157.76" r="3.03678" fill="#0264BE" stroke="#F6F6F6" stroke-width="3"/>
<circle cx="4.53678" cy="172.883" r="3.03678" fill="#0264BE" stroke="#F6F6F6" stroke-width="3"/>
<path d="M7.57357 187.753C7.57357 189.212 6.29589 190.538 4.53678 190.538C2.77768 190.538 1.5 189.212 1.5 187.753C1.5 186.295 2.77768 184.969 4.53678 184.969C6.29589 184.969 7.57357 186.295 7.57357 187.753Z" fill="#0264BE" stroke="#F6F6F6" stroke-width="3"/>
<circle cx="4.53678" cy="202.624" r="3.03678" fill="#0264BE" stroke="#F6F6F6" stroke-width="3"/>
<path d="M7.57357 217.495C7.57357 218.953 6.29589 220.279 4.53678 220.279C2.77768 220.279 1.5 218.953 1.5 217.495C1.5 216.036 2.77768 214.71 4.53678 214.71C6.29589 214.71 7.57357 216.036 7.57357 217.495Z" fill="#0264BE" stroke="#F6F6F6" stroke-width="3"/>
<circle cx="4.53678" cy="232.365" r="3.03678" fill="#0264BE" stroke="#F6F6F6" stroke-width="3"/>
<circle cx="279.5" cy="8.5" r="7.5" stroke="#0264BE" stroke-width="2"/>
<circle cx="302.5" cy="8.5" r="7.5" stroke="#0264BE" stroke-width="2"/>
<circle cx="325.5" cy="8.5" r="7.5" stroke="#0264BE" stroke-width="2"/>
<circle cx="349.5" cy="8.5" r="7.5" stroke="#0264BE" stroke-width="2"/>
<circle cx="372.5" cy="8.5" r="7.5" stroke="#0264BE" stroke-width="2"/>
<circle cx="395.5" cy="8.5" r="7.5" stroke="#0264BE" stroke-width="2"/>
</svg>
