<svg width="260" height="116" viewBox="0 0 260 116" fill="none" xmlns="http://www.w3.org/2000/svg">
<circle cx="8.5" cy="8.5" r="7.5" stroke="#0264BE" stroke-width="2"/>
<circle cx="31.5" cy="8.5" r="7.5" stroke="#0264BE" stroke-width="2"/>
<circle cx="54.5" cy="8.5" r="7.5" stroke="#0264BE" stroke-width="2"/>
<circle cx="78.5" cy="8.5" r="7.5" stroke="#0264BE" stroke-width="2"/>
<circle cx="101.5" cy="8.5" r="7.5" stroke="#0264BE" stroke-width="2"/>
<circle cx="124.5" cy="8.5" r="7.5" stroke="#0264BE" stroke-width="2"/>
<path d="M259.16 106.5L250.5 97.8397L241.84 106.5L250.5 115.16L259.16 106.5ZM187 50C191.418 50 195 46.4183 195 42C195 37.5817 191.418 34 187 34C182.582 34 179 37.5817 179 42C179 46.4183 182.582 50 187 50ZM208.52 64H210.02V62.5H208.52V64ZM187 64H185.5V65.5H187V64ZM208.52 84.7106H207.02V86.2106H208.52V84.7106ZM228.5 84.7106H230V83.2106H228.5V84.7106ZM228.5 106.5H227V108H228.5V106.5ZM208.52 62.5H187V65.5H208.52V62.5ZM188.5 64V42H185.5V64H188.5ZM210.02 84.7106V64H207.02V84.7106H210.02ZM228.5 83.2106H208.52V86.2106H228.5V83.2106ZM250.5 105L228.5 105V108L250.5 108V105ZM230 106.5V84.7106H227V106.5H230Z" fill="#0264BE"/>
</svg>
