<svg width="20" height="20" viewBox="0 0 20 20" fill="none" xmlns="http://www.w3.org/2000/svg">
<path d="M15.1309 12.5877L13.4581 13.5278C13.2574 13.6406 13.0252 13.6847 12.7969 13.6534C12.5687 13.6221 12.357 13.5172 12.1942 13.3547L6.61121 7.78493C6.44838 7.6224 6.34329 7.41122 6.31195 7.18356C6.28061 6.95591 6.32474 6.72428 6.43761 6.52398L7.37997 4.85521C7.5496 4.55487 7.61601 4.20738 7.56907 3.86584C7.52212 3.5243 7.36439 3.20748 7.11998 2.96378L4.61289 0.46263C4.46594 0.315963 4.29147 0.199616 4.09945 0.120237C3.90742 0.0408568 3.7016 0 3.49373 0C3.28587 0 3.08005 0.0408568 2.88802 0.120237C2.69599 0.199616 2.52152 0.315963 2.37458 0.46263L1.23623 1.59749C0.570554 2.26157 0.146533 3.12861 0.0315866 4.06075C-0.0833593 4.99289 0.117369 5.93661 0.601854 6.74185L1.17303 7.69156C4.0899 12.5414 8.20697 16.5621 13.1293 19.3681L13.2421 19.4328C14.9237 20.3913 17.0012 20.1119 18.3475 18.7696L19.5363 17.5836C19.6833 17.437 19.7999 17.263 19.8795 17.0714C19.959 16.8798 20 16.6745 20 16.4671C20 16.2598 19.959 16.0544 19.8795 15.8629C19.7999 15.6713 19.6833 15.4972 19.5363 15.3506L17.0276 12.8479C16.7833 12.6037 16.4657 12.4461 16.1231 12.3991C15.7806 12.3522 15.4321 12.4184 15.1309 12.5877Z" fill="#EEEEEE"/>
</svg>
