<svg width="385" height="303" viewBox="0 0 385 303" fill="none" xmlns="http://www.w3.org/2000/svg">
<path d="M317 172.5L334 209.5H382.5L355 256H306.5L279.5 301.5H233.5L217 263L241.5 216.5L257.5 256H306.5L290 217L317 172.5Z" fill="#157CBF"/>
<path d="M39.5 42L62 83H111.5L131.5 119.5H183L164.5 83H217.5L265 172.5H318L296 132L271 83.5H324.5L296 132L318 172.5L290.5 217H228.5L185.5 143.5L162.5 174.5H104.5L77.5 124.5H21L5.5 94L39.5 42L66.5 3L88.5 42H39.5Z" fill="#157CBF"/>
<path d="M62.5 84L39.5 42H88.5L66.5 3H123.5L145 43H300.5C307.833 54.6667 323.7 80.7 324.5 83.5H271L317 172.5H366L382.5 209.5H334L317 172.5L290 217L306.5 256H257.5L241 217H290L317 172.5H265L218 84H164.5L183 119.5H131.5L111.5 84H62.5Z" fill="#EFEFEF"/>
<path d="M290.083 217L316.942 172.021M290.083 217L306.5 256M290.083 217H241M66.2534 2L5.32957 93.505C5.12646 93.8101 5.10649 94.2018 5.27755 94.5259L21.2062 124.709C21.3793 125.037 21.7197 125.243 22.0906 125.243H77.288C77.6597 125.243 78.0008 125.449 78.1735 125.778L103.576 174.184C103.749 174.514 104.09 174.72 104.461 174.72H162.432C162.755 174.72 163.059 174.563 163.247 174.299L184.432 144.498C184.853 143.906 185.745 143.946 186.111 144.574L228.016 216.503C228.196 216.811 228.525 217 228.881 217H241M66.2534 2L88.0886 40.9926C88.4619 41.6592 87.9801 42.4812 87.2161 42.4812H40.9708C40.2081 42.4812 39.7262 43.3006 40.0968 43.9671L61.491 82.4483C61.6675 82.7656 62.002 82.9623 62.3651 82.9623H110.573C110.939 82.9623 111.276 83.1628 111.451 83.4848L131.039 119.524C131.214 119.846 131.552 120.046 131.918 120.046H182.099C182.85 120.046 183.333 119.249 182.986 118.583L165.159 84.425C164.811 83.7593 165.294 82.9623 166.045 82.9623L216.962 82.9626C217.331 82.9626 217.671 83.1663 217.844 83.4924L264.731 171.491C264.905 171.817 265.245 172.021 265.614 172.021H316.942M66.2534 2H122.273C122.64 2 122.977 2.20056 123.152 2.52266L144.574 41.9585C144.749 42.2806 145.086 42.4812 145.453 42.4812H300.137C300.488 42.4812 300.814 42.6654 300.994 42.9666L325 82.9626M325 82.9626L272.036 82.9623C271.285 82.9623 270.802 83.7595 271.15 84.4253L296 132M325 82.9626L296 132M316.942 172.021L296 132M316.942 172.021L333.733 208.914C333.896 209.271 334.252 209.5 334.644 209.5H382.5M316.942 172.021H365.348C365.744 172.021 366.103 172.255 366.263 172.618L382.5 209.5M382.5 209.5L355.29 255.509C355.11 255.813 354.783 256 354.43 256H306.5M306.5 256L280.076 301.006C279.896 301.312 279.568 301.5 279.213 301.5H234.652C234.256 301.5 233.897 301.266 233.737 300.904L217.194 263.44C217.072 263.162 217.082 262.843 217.223 262.574L241 217M306.5 256H258.163C257.761 256 257.398 255.76 257.242 255.39L241 217" stroke="#000A13" stroke-width="3"/>
</svg>
